PathFileType	4	(X/Y/Z)	T1_P1_Vision_Movement_4_0-662.trc
DataRate	CameraRate	NumFrames	NumMarkers	Units	OrigDataRate	OrigDataStartFrame	OrigNumFrames
60	60	7	27	m	60	165	662
Frame#	Time	RHip			RKnee			RAnkle			RBigToe			RSmallToe			RHeel			LHip			LKnee			LAnkle			LBigToe			LSmallToe			LHeel			Neck			Head			Nose			RShoulder			RElbow			RWrist			RThumb			RIndex			RPinky			LShoulder			LElbow			LWrist			LThumb			LIndex			LPinky		
		X1	Y1	Z1	X2	Y2	Z2	X3	Y3	Z3	X4	Y4	Z4	X5	Y5	Z5	X6	Y6	Z6	X7	Y7	Z7	X8	Y8	Z8	X9	Y9	Z9	X10	Y10	Z10	X11	Y11	Z11	X12	Y12	Z12	X13	Y13	Z13	X14	Y14	Z14	X15	Y15	Z15	X16	Y16	Z16	X17	Y17	Z17	X18	Y18	Z18	X19	Y19	Z19	X20	Y20	Z20	X21	Y21	Z21	X22	Y22	Z22	X23	Y23	Z23	X24	Y24	Z24	X25	Y25	Z25	X26	Y26	Z26	X27	Y27	Z27
166	2.7666666666666666	-107.85530247456393	3943.920996894716	-645.3632677824686	253.24482210505192	4030.2082438856514	-634.4852753005631	611.8184102971283	4271.437657838816	-688.8594400505579	691.1401635807069	4175.649854965029	-645.123033196836	674.5246597683528	4138.87735040018	-686.5824092533279	645.2505188733361	4318.548617838993	-700.1886778872453	-124.49653591152077	4080.984278739919	-503.86694246516333	222.66497306564688	4198.377495818245	-498.18139081276087	572.4578364303557	4338.964547670847	-509.7509302123019	632.2823760792172	4191.700630158773	-385.4607955864024	617.1468617945769	4283.5003313479865	-381.0212513760534	614.196016101809	4379.405495854871	-534.0278995457297	-717.8916644580593	3853.876660358993	-571.3863839975934	-960.5548073781782	3726.6551707503127	-494.98244460386974	-825.3988749498308	3739.547557476339	-466.4747595128956	-599.5883600849012	3788.4212791139357	-704.764802006003	-331.18862087850613	3715.887953440514	-687.2943828168777	-518.7530479995895	3617.257901452012	-524.6854285063031	-610.2323058739805	3605.023219405064	-436.1913595441092	-620.4247332013875	3606.452113348517	-426.14232786692526	-580.6314954959824	3619.034023830416	-426.9389308416456	-655.6211189735786	4019.860614224803	-488.65840538713246	-401.07283860378664	4148.798700150162	-451.65905575239134	-153.75411260079238	4124.422586732277	-365.0231529182423	-37.92213843150185	4136.80125689746	-363.85010230941174	-3.7567297799288	4130.393905138522	-331.47005027831227	-16.11571790563514	4158.46987181633	-335.7851485674089
167	2.783333333333333	-102.57262466788315	3923.1102727762177	-629.4213196731652	258.85564697540354	4030.757486048301	-634.034670225498	611.6897631686431	4271.922436787195	-689.2867557225585	696.3324671176163	4209.3228123321815	-653.5012036450704	674.5173231888723	4139.450876095292	-686.5675093598852	638.4222159560389	4314.422915792175	-698.3554234862424	-130.80325783498097	4055.3172769713947	-486.9570053512565	222.7161614984529	4198.250005070017	-498.26958916965305	577.3418090710124	4338.215123027447	-508.95713730851594	643.1703384749253	4227.135881397641	-393.4185638443588	623.7489632484875	4288.675490707824	-383.1309213437024	619.1008829071837	4378.522760790197	-533.4189939947825	-717.7201884965015	3854.200819050975	-571.2867833055292	-951.7846311913776	3731.034361863894	-495.8955499407306	-820.7442421390375	3740.4972735185406	-466.1097484238948	-599.0476612023378	3787.1096574256685	-709.4239286108709	-333.04466282125964	3743.625095201523	-695.2519660089758	-505.3057740300164	3632.0419535909773	-519.0862279256154	-597.444286302972	3614.422712403342	-427.8055935819298	-608.4827913288451	3618.3717319327975	-413.3779751277502	-569.4072196189019	3606.133333634008	-414.4826945621301	-647.486360808329	4002.7597320304626	-474.94023937152355	-395.68667655106583	4131.28876482464	-438.7973010780687	-153.39933335203395	4124.647276618248	-365.0363977935187	-26.147807492650305	4141.512442179532	-362.7068885888091	2.1637109845836378	4132.080752393887	-330.92119064496995	-15.84957991305233	4186.8392758533455	-340.44343769206364
168	2.8	-108.72939010013943	3921.490559343642	-627.8274602808222	247.22598222125268	4027.1547659321664	-632.8270176507323	617.4971898580457	4271.334816587771	-688.3985992237269	685.3219240345182	4172.719742145607	-645.7556525502081	674.4577985017132	4138.949499853834	-686.4407477292106	644.8038268742101	4319.131105524237	-700.568198757296	-125.33003331393552	4058.0401641839726	-486.54264853446267	216.3548537965095	4194.096066192265	-496.3305500945411	577.5595638095565	4338.139094295725	-508.8189290196378	643.5482473623878	4218.829050071182	-402.365827482514	624.0213760188739	4289.137015801047	-383.4005990995744	626.4672978651001	4383.269442286089	-535.5795349721716	-712.6834475691088	3855.1452395470424	-570.780316090217	-947.2297942369178	3711.049374858307	-481.3458459774511	-820.6425318682788	3740.115687666061	-465.94502811701034	-599.5252576874012	3788.56195991766	-704.5684913473328	-330.5673299838105	3716.905682746009	-687.3543500604777	-493.9803796619634	3616.296307193902	-498.4264154289775	-596.0006375346844	3614.617111196847	-427.1394066741695	-594.7934095974681	3599.0064265678207	-407.76594084330947	-565.0441795325065	3609.3802185056456	-408.58745241592135	-647.3816653291117	4002.6016006103355	-474.9927801840835	-396.6765389192641	4152.49862189919	-453.1168632740699	-153.54385336204209	4124.658585697159	-365.06160839298286	-26.411020684910483	4142.358488894451	-362.73518560538304	2.200992556233303	4132.640978940037	-330.7516482344657	-15.93932017843061	4186.53954479955	-340.34699750545775
169	2.816666666666667	-103.75034428194687	3925.3983313134404	-623.0730420737669	253.21819307740287	4030.8379572949984	-634.5352408756148	611.9585972034132	4271.81183165694	-688.9997423033593	690.4035522720342	4205.582329067384	-653.8534781284033	669.489066535672	4117.226805380515	-670.3451343437985	645.1630334296543	4318.843177676976	-700.359234359579	-125.35163175833208	4057.6870565460936	-486.2563167367098	220.61566747314387	4167.961397686021	-486.6653864189084	566.2709311667671	4335.592583137073	-510.383041386799	643.0802307858289	4226.728423871677	-393.12213988775915	623.7576038997067	4288.5133150443835	-382.9033449488067	626.3463396074047	4383.43526752519	-535.862973219999	-712.6565884792628	3855.19545537882	-570.6420915012337	-951.536989679242	3730.4558160925963	-495.63813443788894	-815.7191872718133	3741.1175861086626	-465.9593508236914	-602.9977547022497	3814.5600207066955	-716.7160611907512	-333.0196950374155	3745.17669310086	-695.6560662787642	-491.5646644313582	3646.514490105088	-507.13173340805594	-585.726492533496	3624.4341647181786	-424.78323488973444	-587.1638922449304	3631.4481139376676	-409.3080034446219	-564.288367589749	3611.898796709739	-408.96797952681015	-652.7746578795807	3999.0488134499988	-473.77712822513826	-395.74796237541045	4131.234168277411	-438.7471620445541	-153.55764407749584	4124.751943482745	-365.1320819854597	-20.163063438248493	4146.672695533382	-364.42662315328425	7.940745805412538	4136.573450249878	-332.36883645130325	-15.674400541449517	4187.106482463926	-340.5555888952409
170	2.8333333333333335	-109.30250415280655	3921.3905220689144	-621.2195778026565	248.44693215127768	4056.6751070608775	-639.7578628779877	617.4846069558533	4271.272498684222	-688.1179887969922	690.5605794332457	4204.831255669327	-653.4877860331846	674.8530691106638	4139.850099398461	-686.6419998090412	645.5940380457195	4318.142308443877	-699.6349444745805	-125.451533547634	4057.767218694118	-486.2791362845693	214.13398673928384	4164.121039429356	-485.0130425918579	570.3401440037807	4335.34052358712	-504.1879612875563	638.7481335947693	4195.711766206556	-387.20934962096356	623.6929889397719	4288.011169539788	-382.64064972190795	619.6032721942624	4378.831950987024	-533.2019931657784	-712.8955324114978	3855.0784851821886	-564.2539993466646	-951.8898314315903	3731.244617006773	-489.8080171645184	-815.7155470613078	3741.1652215926597	-465.8901896589132	-607.7199651994016	3844.4713792293023	-719.5206971872635	-330.4032058285509	3774.533774806069	-704.5916914336102	-487.257404369575	3648.4620116285964	-500.7143797874458	-582.3693671056726	3624.6893895372423	-424.15748387733873	-588.1503765888119	3633.7227567683376	-404.867992384079	-559.4402869323959	3618.133290135908	-405.3460533708173	-649.9069105209065	4024.081107550413	-489.8371086254884	-396.6903738619811	4152.277804621265	-452.96532091066337	-153.9525960455977	4124.466512762057	-364.9489115258797	-26.468109789564384	4142.284050054976	-362.8233833508607	1.9781609560973654	4132.728785620731	-330.983019512746	-21.888445065894533	4182.760739625053	-339.0667848722736
171	2.85	-109.45596901669613	3922.234603762386	-621.6298945406027	243.16116350496017	4057.7436440689758	-640.6787726704475	607.3066751476343	4269.440453339721	-693.8861603595963	691.2447215160901	4176.07574225435	-645.3345496815529	681.1849373446415	4143.298487140542	-686.4414196000373	645.6559604731167	4316.627759344385	-696.9941344459148	-125.11001997352858	4079.053085811523	-501.4144116927546	214.16446255914468	4164.340293471872	-485.11777113254783	572.0025817964824	4339.381550182003	-504.2286109422161	638.7301486299732	4195.798318748056	-387.267413595426	623.8729281827561	4288.362034260989	-382.8476473857564	626.9987713648829	4383.874295047793	-535.7356963604666	-712.9410032915811	3854.892190451066	-564.0216301141326	-951.8982699968718	3731.093797605839	-489.6139789120418	-820.6255067455475	3739.9310159667225	-465.6880981023496	-607.8351862369269	3844.6862457700868	-719.5532987983195	-328.2041884308222	3748.0932098249127	-696.6835971172494	-476.1298882581672	3632.873816597847	-486.09418128768476	-582.3096770465613	3624.518907105902	-423.64702449476806	-583.7949962568423	3630.9008739140727	-408.34309411063015	-557.6198155865883	3638.859299899024	-408.95119288482476	-647.4965078410876	4003.225389090728	-474.9005794336971	-396.708942133846	4152.122868101775	-452.89083085772586	-153.97288295450045	4124.778684593688	-365.1075499668791	-29.65126886766642	4144.722062522186	-371.4058659654996	8.54595644910482	4139.307810594854	-339.6737331480425	-16.092501228106837	4186.9313428066935	-340.7698913361911
172	2.8666666666666667	-109.46394922094518	3922.2251653063945	-621.4735990129052	243.02143221780784	4057.505191786288	-640.5328894592549	613.3025637451143	4273.721446901662	-696.3144353877976	690.9779448530354	4175.660425498522	-645.1830324573704	680.8683124810577	4142.070333340792	-686.1970560957847	651.9011442163768	4321.469926541051	-699.5165306195755	-125.66132091402815	4057.9185365946846	-486.2512697405816	214.00243816166105	4164.000177633687	-484.877910854694	566.0100240139238	4334.795318967556	-510.2717255220542	636.4550991913359	4222.222979318999	-390.95484819557146	623.6524120901287	4288.801545455512	-383.0372839113253	622.4632577909787	4384.476562593026	-542.8316610335925	-713.0267506445372	3855.348850225502	-564.2818800759666	-952.1124011829036	3709.365529550761	-474.95403880454006	-820.58013928308	3739.257649048911	-465.4229499911291	-607.8273894039953	3844.6059102226905	-719.5928675782773	-330.2596631097163	3774.7631285247753	-704.4101442154007	-475.90168761133873	3632.493574885799	-485.5856878523335	-585.9158163650283	3644.5167145163236	-427.5704179194106	-584.4273119967572	3628.642071739808	-403.3043961118583	-547.4714169968826	3623.921644611471	-390.9989846820417	-653.0478621436343	3999.591806623506	-473.80792300687074	-396.7997329495343	4152.101852467613	-452.91531516300313	-153.9142802586217	4124.980364608922	-365.11243731649347	-24.602871316528958	4146.228785833089	-371.83664748357876	14.619300969953917	4144.21803738067	-341.67891313137665	-15.872047688354758	4186.797358588324	-340.60019609140875
